<svg id="svg" version="1.1" xmlns="http://www.w3.org/2000/svg" xmlns:xlink="http://www.w3.org/1999/xlink" width="400" height="400" viewBox="0, 0, 400,400"><g id="svgg"><path id="path0" d="M205.572 185.401 C 199.572 191.801,194.569 197.037,194.455 197.037 C 194.341 197.037,191.425 194.079,187.975 190.463 C 184.525 186.847,179.569 181.660,176.962 178.935 L 172.222 173.981 172.222 196.064 L 172.222 218.148 175.185 218.148 L 178.148 218.148 178.148 204.047 C 178.148 192.864,178.245 189.970,178.616 190.065 C 178.874 190.131,182.499 193.685,186.672 197.963 C 190.845 202.241,194.350 205.785,194.461 205.839 C 194.572 205.893,198.046 202.351,202.183 197.968 C 206.319 193.586,209.853 190.000,210.037 190.000 C 210.229 190.000,210.370 195.976,210.370 204.074 L 210.370 218.148 213.519 218.148 L 216.667 218.148 216.667 195.926 C 216.667 183.704,216.625 173.717,216.574 173.734 C 216.523 173.751,211.572 179.001,205.572 185.401 M229.380 211.008 C 228.340 211.198,226.794 212.749,226.592 213.805 C 225.867 217.597,230.248 220.065,232.934 217.379 C 235.623 214.690,233.181 210.312,229.380 211.008 " stroke="none" fill="#141414" fill-rule="evenodd"></path><path id="path1" d="" stroke="none" fill="#040404" fill-rule="evenodd"></path><path id="path2" d="" stroke="none" fill="#0c0c0c" fill-rule="evenodd"></path><path id="path3" d="" stroke="none" fill="#14180c" fill-rule="evenodd"></path><path id="path4" d="M162.713 160.606 C 160.616 161.349,158.151 163.598,157.034 165.786 L 156.111 167.593 156.111 198.519 L 156.111 229.444 156.960 231.034 C 158.194 233.344,160.506 235.414,162.820 236.280 C 165.990 237.466,234.010 237.466,237.180 236.280 C 239.494 235.414,241.806 233.344,243.040 231.034 L 243.889 229.444 243.889 198.519 L 243.889 167.593 242.966 165.786 C 241.811 163.524,239.368 161.344,237.136 160.583 C 234.632 159.730,165.124 159.752,162.713 160.606 M236.290 163.732 C 241.212 165.965,240.908 163.795,241.029 197.553 C 241.145 229.816,241.199 229.048,238.665 231.582 C 236.252 233.995,238.031 233.889,200.000 233.889 C 161.969 233.889,163.748 233.995,161.335 231.582 C 158.801 229.048,158.855 229.816,158.971 197.553 C 159.092 163.795,158.788 165.965,163.710 163.732 C 166.315 162.551,233.685 162.551,236.290 163.732 M171.394 195.370 L 171.492 218.889 175.191 218.889 L 178.889 218.889 178.899 205.093 L 178.909 191.296 186.770 199.338 L 194.630 207.380 201.852 199.650 C 205.824 195.399,209.199 191.905,209.352 191.886 C 209.505 191.867,209.630 197.935,209.630 205.370 L 209.630 218.889 213.519 218.889 L 217.407 218.889 217.407 195.556 C 217.407 182.518,217.265 172.222,217.084 172.222 C 216.906 172.222,211.814 177.472,205.767 183.889 C 199.720 190.306,194.635 195.556,194.467 195.556 C 194.299 195.556,189.046 190.222,182.795 183.704 C 176.544 177.185,171.399 171.852,171.363 171.852 C 171.326 171.852,171.340 182.435,171.394 195.370 M217.037 195.755 L 217.037 218.546 213.611 218.440 L 210.185 218.333 210.088 204.508 C 210.032 196.557,209.850 190.734,209.659 190.804 C 209.476 190.871,206.049 194.384,202.043 198.611 C 198.036 202.838,194.646 206.296,194.509 206.296 C 194.372 206.296,190.726 202.671,186.408 198.241 L 178.558 190.185 178.538 204.352 L 178.519 218.519 175.185 218.519 L 171.852 218.519 171.852 195.926 C 171.852 183.500,171.907 173.333,171.973 173.333 C 172.040 173.333,177.082 178.542,183.177 184.907 C 189.272 191.273,194.360 196.481,194.482 196.481 C 194.605 196.481,199.686 191.190,205.773 184.722 C 211.861 178.255,216.886 172.963,216.939 172.963 C 216.993 172.963,217.037 183.219,217.037 195.755 M227.888 210.726 C 223.833 213.199,225.511 219.383,230.237 219.383 C 233.002 219.383,235.013 217.351,234.946 214.624 C 234.856 210.901,231.050 208.798,227.888 210.726 M232.532 211.214 C 233.651 211.766,234.444 213.326,234.444 214.976 C 234.444 218.168,230.319 220.044,227.856 217.972 C 223.792 214.552,227.737 208.849,232.532 211.214 " stroke="none" fill="#000000" fill-rule="evenodd"></path></g></svg>