<svg width="62" height="45" viewBox="0 0 62 45" fill="none" xmlns="http://www.w3.org/2000/svg">
<path fill-rule="evenodd" clip-rule="evenodd" d="M33.35 11.667C27.35 18.067 22.347 23.303 22.233 23.303C22.119 23.303 19.203 20.345 15.753 16.729C12.303 13.113 7.34701 7.92603 4.74001 5.20103L0 0.247031V22.33V44.414H2.963H5.92599V30.313C5.92599 19.13 6.023 16.236 6.394 16.331C6.652 16.397 10.277 19.951 14.45 24.229C18.623 28.507 22.128 32.051 22.239 32.105C22.35 32.159 25.824 28.617 29.961 24.234C34.097 19.852 37.631 16.266 37.815 16.266C38.007 16.266 38.148 22.242 38.148 30.34V44.414H41.297H44.445V22.192C44.445 9.97002 44.403 -0.0169783 44.352 2.16711e-05C44.301 0.0170217 39.35 5.26703 33.35 11.667ZM57.158 37.274C56.118 37.464 54.572 39.015 54.37 40.071C53.645 43.863 58.026 46.331 60.712 43.645C63.401 40.956 60.959 36.578 57.158 37.274Z" fill="#141414"/>
</svg>
