<svg width="345" height="25" viewBox="0 0 345 25" fill="none" xmlns="http://www.w3.org/2000/svg">
<mask id="path-1-outside-1_42_3" maskUnits="userSpaceOnUse" x="-1" y="0" width="346" height="25" fill="black">
<rect fill="white" x="-1" width="346" height="25"/>
<path fill-rule="evenodd" clip-rule="evenodd" d="M45.19 2.49492C41.0928 3.75292 40.5081 5.37993 40.5081 15.5239V23.5549H41.5855H42.6628V20.5919V17.6289H47.1527H51.6426V20.5919V23.5549H52.9343H54.227L54.0912 15.4999C53.9011 4.13293 51.4613 0.56892 45.19 2.49492ZM268.396 2.40993C263.999 3.53693 263.194 5.64692 263.191 16.0549L263.189 23.5549H264.251H265.314L265.418 20.6849L265.523 17.8149L270.102 17.7109L274.682 17.6069V20.5809V23.5549H275.76H276.837L276.835 16.0549C276.834 11.9299 276.666 7.93592 276.462 7.17792C275.53 3.71892 271.828 1.52993 268.396 2.40993ZM302.626 2.57793C291.169 5.85393 293.347 23.8119 305.185 23.6819C309.644 23.6329 314.029 20.4809 311.998 18.7849C311.272 18.1789 311.193 18.2019 309.945 19.3809C305.211 23.8519 297.309 19.8809 297.309 13.0299C297.309 6.04992 305.205 2.01592 309.919 6.58792L310.854 7.49593L311.831 6.69292L312.807 5.88992L311.613 4.84992C309.07 2.63292 305.547 1.74293 302.626 2.57793ZM73.1921 13.1849V23.5549H74.4489H75.7057V20.5919V17.6289H78.0495H80.3934L81.7888 19.9439C83.9969 23.6059 84.0202 23.6289 85.3274 23.4929L86.5056 23.3699L84.6689 20.2979L82.8332 17.2259L83.7613 16.4729C87.5462 13.4029 88.2754 8.77393 85.5068 5.38193C83.7942 3.28193 82.3377 2.81493 77.5162 2.81493H73.1921V13.1849ZM105.516 13.1849V23.5549H106.594H107.671V20.7459C107.671 17.9619 107.687 17.9179 109.354 15.7289L111.035 13.5219L114.216 18.5389C117.287 23.3829 117.439 23.5549 118.64 23.5549C120.231 23.5549 120.444 24.0959 116.241 17.4359L112.598 11.6649L113.637 10.2259C114.208 9.43492 115.696 7.44392 116.943 5.80092L119.21 2.81493H117.81C116.431 2.81493 116.344 2.89992 112.389 8.16992C110.178 11.1149 108.212 13.6249 108.02 13.7469C107.8 13.8869 107.671 11.9079 107.671 8.39192V2.81493H106.594H105.516V13.1849ZM138.2 13.1849V23.5549H144.845H151.49V22.2589V20.9629H145.922H140.355V17.8149V14.6659H144.845H149.334V13.5669V12.4669L144.934 12.3629L140.535 12.2589L140.432 8.64792L140.329 5.03693H145.729H151.13V3.92592V2.81493H144.665H138.2V13.1849ZM168.37 3.92592V5.03693H171.423H174.475V14.2959V23.5549H175.733H176.99V14.2959V5.03693H180.222H183.454V3.92592V2.81493H175.913H168.37V3.92592ZM200.694 13.1559V23.5549H201.757H202.819L202.924 20.6849L203.029 17.8149L206.303 17.6009C211.781 17.2429 214.513 14.7819 214.493 10.2219C214.469 5.07192 211.943 3.05392 205.301 2.87792L200.694 2.75592V13.1559ZM233.019 13.1849V23.5549H239.304H245.59V22.2589V20.9629H240.382H235.174V11.8889V2.81493H234.097H233.019V13.1849ZM331.071 13.1849V23.5549H337.535H344V22.2589V20.9629H338.612H333.225V17.8149V14.6659H337.715H342.204V13.5549V12.4439H337.715H333.225V8.74092V5.03693H338.612H344V3.92592V2.81493H337.535H331.071V13.1849ZM1.01067 13.2779L1 23.5549H2.07738H3.15573V16.7039C3.15573 8.48392 2.88614 8.66492 7.72222 13.6349L11.4024 17.4169L15.2707 13.3569L19.138 9.29591L19.2359 16.4259L19.3329 23.5549H20.4025H21.4721L21.4624 13.2779L21.4527 2.99992L20.1349 4.48093C19.4095 5.29593 17.1364 7.79593 15.0825 10.0369L11.349 14.1109L6.18422 8.55492L1.02036 2.99992L1.01067 13.2779ZM49.9291 5.39493C51.3333 6.53393 51.6814 7.87792 51.567 11.7239L51.4622 15.2219L47.0625 15.3259L42.6628 15.4299V12.0929C42.6628 8.22093 43.3358 6.02992 44.772 5.22492C46.1849 4.43392 48.8527 4.52093 49.9291 5.39493ZM273.07 5.89292C274.423 7.28892 274.797 8.95893 274.615 12.8149L274.502 15.2219L269.87 15.3259L265.239 15.4299L265.431 11.5649C265.705 6.00493 266.57 4.74293 270.138 4.69193C271.648 4.66993 272.04 4.82992 273.07 5.89292ZM82.1573 5.58492C87.391 8.37592 84.8328 15.0369 78.5266 15.0369H75.7057V10.0369V5.03693H78.418C80.1092 5.03693 81.5154 5.24292 82.1573 5.58492ZM209.862 5.78293C214.909 8.99993 211.958 15.4069 205.429 15.4069H202.849V10.2219V5.03693H205.77C208.072 5.03693 208.939 5.19493 209.862 5.78293Z"/>
</mask>
<path fill-rule="evenodd" clip-rule="evenodd" d="M45.19 2.49492C41.0928 3.75292 40.5081 5.37993 40.5081 15.5239V23.5549H41.5855H42.6628V20.5919V17.6289H47.1527H51.6426V20.5919V23.5549H52.9343H54.227L54.0912 15.4999C53.9011 4.13293 51.4613 0.56892 45.19 2.49492ZM268.396 2.40993C263.999 3.53693 263.194 5.64692 263.191 16.0549L263.189 23.5549H264.251H265.314L265.418 20.6849L265.523 17.8149L270.102 17.7109L274.682 17.6069V20.5809V23.5549H275.76H276.837L276.835 16.0549C276.834 11.9299 276.666 7.93592 276.462 7.17792C275.53 3.71892 271.828 1.52993 268.396 2.40993ZM302.626 2.57793C291.169 5.85393 293.347 23.8119 305.185 23.6819C309.644 23.6329 314.029 20.4809 311.998 18.7849C311.272 18.1789 311.193 18.2019 309.945 19.3809C305.211 23.8519 297.309 19.8809 297.309 13.0299C297.309 6.04992 305.205 2.01592 309.919 6.58792L310.854 7.49593L311.831 6.69292L312.807 5.88992L311.613 4.84992C309.07 2.63292 305.547 1.74293 302.626 2.57793ZM73.1921 13.1849V23.5549H74.4489H75.7057V20.5919V17.6289H78.0495H80.3934L81.7888 19.9439C83.9969 23.6059 84.0202 23.6289 85.3274 23.4929L86.5056 23.3699L84.6689 20.2979L82.8332 17.2259L83.7613 16.4729C87.5462 13.4029 88.2754 8.77393 85.5068 5.38193C83.7942 3.28193 82.3377 2.81493 77.5162 2.81493H73.1921V13.1849ZM105.516 13.1849V23.5549H106.594H107.671V20.7459C107.671 17.9619 107.687 17.9179 109.354 15.7289L111.035 13.5219L114.216 18.5389C117.287 23.3829 117.439 23.5549 118.64 23.5549C120.231 23.5549 120.444 24.0959 116.241 17.4359L112.598 11.6649L113.637 10.2259C114.208 9.43492 115.696 7.44392 116.943 5.80092L119.21 2.81493H117.81C116.431 2.81493 116.344 2.89992 112.389 8.16992C110.178 11.1149 108.212 13.6249 108.02 13.7469C107.8 13.8869 107.671 11.9079 107.671 8.39192V2.81493H106.594H105.516V13.1849ZM138.2 13.1849V23.5549H144.845H151.49V22.2589V20.9629H145.922H140.355V17.8149V14.6659H144.845H149.334V13.5669V12.4669L144.934 12.3629L140.535 12.2589L140.432 8.64792L140.329 5.03693H145.729H151.13V3.92592V2.81493H144.665H138.2V13.1849ZM168.37 3.92592V5.03693H171.423H174.475V14.2959V23.5549H175.733H176.99V14.2959V5.03693H180.222H183.454V3.92592V2.81493H175.913H168.37V3.92592ZM200.694 13.1559V23.5549H201.757H202.819L202.924 20.6849L203.029 17.8149L206.303 17.6009C211.781 17.2429 214.513 14.7819 214.493 10.2219C214.469 5.07192 211.943 3.05392 205.301 2.87792L200.694 2.75592V13.1559ZM233.019 13.1849V23.5549H239.304H245.59V22.2589V20.9629H240.382H235.174V11.8889V2.81493H234.097H233.019V13.1849ZM331.071 13.1849V23.5549H337.535H344V22.2589V20.9629H338.612H333.225V17.8149V14.6659H337.715H342.204V13.5549V12.4439H337.715H333.225V8.74092V5.03693H338.612H344V3.92592V2.81493H337.535H331.071V13.1849ZM1.01067 13.2779L1 23.5549H2.07738H3.15573V16.7039C3.15573 8.48392 2.88614 8.66492 7.72222 13.6349L11.4024 17.4169L15.2707 13.3569L19.138 9.29591L19.2359 16.4259L19.3329 23.5549H20.4025H21.4721L21.4624 13.2779L21.4527 2.99992L20.1349 4.48093C19.4095 5.29593 17.1364 7.79593 15.0825 10.0369L11.349 14.1109L6.18422 8.55492L1.02036 2.99992L1.01067 13.2779ZM49.9291 5.39493C51.3333 6.53393 51.6814 7.87792 51.567 11.7239L51.4622 15.2219L47.0625 15.3259L42.6628 15.4299V12.0929C42.6628 8.22093 43.3358 6.02992 44.772 5.22492C46.1849 4.43392 48.8527 4.52093 49.9291 5.39493ZM273.07 5.89292C274.423 7.28892 274.797 8.95893 274.615 12.8149L274.502 15.2219L269.87 15.3259L265.239 15.4299L265.431 11.5649C265.705 6.00493 266.57 4.74293 270.138 4.69193C271.648 4.66993 272.04 4.82992 273.07 5.89292ZM82.1573 5.58492C87.391 8.37592 84.8328 15.0369 78.5266 15.0369H75.7057V10.0369V5.03693H78.418C80.1092 5.03693 81.5154 5.24292 82.1573 5.58492ZM209.862 5.78293C214.909 8.99993 211.958 15.4069 205.429 15.4069H202.849V10.2219V5.03693H205.77C208.072 5.03693 208.939 5.19493 209.862 5.78293Z" fill="#141414"/>
<path fill-rule="evenodd" clip-rule="evenodd" d="M45.19 2.49492C41.0928 3.75292 40.5081 5.37993 40.5081 15.5239V23.5549H41.5855H42.6628V20.5919V17.6289H47.1527H51.6426V20.5919V23.5549H52.9343H54.227L54.0912 15.4999C53.9011 4.13293 51.4613 0.56892 45.19 2.49492ZM268.396 2.40993C263.999 3.53693 263.194 5.64692 263.191 16.0549L263.189 23.5549H264.251H265.314L265.418 20.6849L265.523 17.8149L270.102 17.7109L274.682 17.6069V20.5809V23.5549H275.76H276.837L276.835 16.0549C276.834 11.9299 276.666 7.93592 276.462 7.17792C275.53 3.71892 271.828 1.52993 268.396 2.40993ZM302.626 2.57793C291.169 5.85393 293.347 23.8119 305.185 23.6819C309.644 23.6329 314.029 20.4809 311.998 18.7849C311.272 18.1789 311.193 18.2019 309.945 19.3809C305.211 23.8519 297.309 19.8809 297.309 13.0299C297.309 6.04992 305.205 2.01592 309.919 6.58792L310.854 7.49593L311.831 6.69292L312.807 5.88992L311.613 4.84992C309.07 2.63292 305.547 1.74293 302.626 2.57793ZM73.1921 13.1849V23.5549H74.4489H75.7057V20.5919V17.6289H78.0495H80.3934L81.7888 19.9439C83.9969 23.6059 84.0202 23.6289 85.3274 23.4929L86.5056 23.3699L84.6689 20.2979L82.8332 17.2259L83.7613 16.4729C87.5462 13.4029 88.2754 8.77393 85.5068 5.38193C83.7942 3.28193 82.3377 2.81493 77.5162 2.81493H73.1921V13.1849ZM105.516 13.1849V23.5549H106.594H107.671V20.7459C107.671 17.9619 107.687 17.9179 109.354 15.7289L111.035 13.5219L114.216 18.5389C117.287 23.3829 117.439 23.5549 118.64 23.5549C120.231 23.5549 120.444 24.0959 116.241 17.4359L112.598 11.6649L113.637 10.2259C114.208 9.43492 115.696 7.44392 116.943 5.80092L119.21 2.81493H117.81C116.431 2.81493 116.344 2.89992 112.389 8.16992C110.178 11.1149 108.212 13.6249 108.02 13.7469C107.8 13.8869 107.671 11.9079 107.671 8.39192V2.81493H106.594H105.516V13.1849ZM138.2 13.1849V23.5549H144.845H151.49V22.2589V20.9629H145.922H140.355V17.8149V14.6659H144.845H149.334V13.5669V12.4669L144.934 12.3629L140.535 12.2589L140.432 8.64792L140.329 5.03693H145.729H151.13V3.92592V2.81493H144.665H138.2V13.1849ZM168.37 3.92592V5.03693H171.423H174.475V14.2959V23.5549H175.733H176.99V14.2959V5.03693H180.222H183.454V3.92592V2.81493H175.913H168.37V3.92592ZM200.694 13.1559V23.5549H201.757H202.819L202.924 20.6849L203.029 17.8149L206.303 17.6009C211.781 17.2429 214.513 14.7819 214.493 10.2219C214.469 5.07192 211.943 3.05392 205.301 2.87792L200.694 2.75592V13.1559ZM233.019 13.1849V23.5549H239.304H245.59V22.2589V20.9629H240.382H235.174V11.8889V2.81493H234.097H233.019V13.1849ZM331.071 13.1849V23.5549H337.535H344V22.2589V20.9629H338.612H333.225V17.8149V14.6659H337.715H342.204V13.5549V12.4439H337.715H333.225V8.74092V5.03693H338.612H344V3.92592V2.81493H337.535H331.071V13.1849ZM1.01067 13.2779L1 23.5549H2.07738H3.15573V16.7039C3.15573 8.48392 2.88614 8.66492 7.72222 13.6349L11.4024 17.4169L15.2707 13.3569L19.138 9.29591L19.2359 16.4259L19.3329 23.5549H20.4025H21.4721L21.4624 13.2779L21.4527 2.99992L20.1349 4.48093C19.4095 5.29593 17.1364 7.79593 15.0825 10.0369L11.349 14.1109L6.18422 8.55492L1.02036 2.99992L1.01067 13.2779ZM49.9291 5.39493C51.3333 6.53393 51.6814 7.87792 51.567 11.7239L51.4622 15.2219L47.0625 15.3259L42.6628 15.4299V12.0929C42.6628 8.22093 43.3358 6.02992 44.772 5.22492C46.1849 4.43392 48.8527 4.52093 49.9291 5.39493ZM273.07 5.89292C274.423 7.28892 274.797 8.95893 274.615 12.8149L274.502 15.2219L269.87 15.3259L265.239 15.4299L265.431 11.5649C265.705 6.00493 266.57 4.74293 270.138 4.69193C271.648 4.66993 272.04 4.82992 273.07 5.89292ZM82.1573 5.58492C87.391 8.37592 84.8328 15.0369 78.5266 15.0369H75.7057V10.0369V5.03693H78.418C80.1092 5.03693 81.5154 5.24292 82.1573 5.58492ZM209.862 5.78293C214.909 8.99993 211.958 15.4069 205.429 15.4069H202.849V10.2219V5.03693H205.77C208.072 5.03693 208.939 5.19493 209.862 5.78293Z" stroke="black" stroke-width="2" mask="url(#path-1-outside-1_42_3)"/>
<path d="M141.117 10.167C141.108 10.2914 141.098 10.3948 141.088 10.4746C141.082 10.5141 141.076 10.5542 141.069 10.5911L141.069 10.5925C141.064 10.6159 141.049 10.6876 141.013 10.7597C141.013 10.7601 141.013 10.7608 141.012 10.7615C141.001 10.784 140.931 10.9268 140.759 11.0009C140.644 11.0503 140.51 11.0573 140.385 11.011C140.275 10.9703 140.206 10.902 140.173 10.8619C140.11 10.7877 140.084 10.7129 140.077 10.6925L140.077 10.6923C140.066 10.6604 140.059 10.6318 140.055 10.6127C140.04 10.5431 140.032 10.4559 140.026 10.3758C140 10.0355 139.985 9.33575 139.985 8.36992C139.985 7.40408 140 6.70436 140.026 6.364C140.032 6.28392 140.04 6.19675 140.055 6.12717C140.059 6.108 140.066 6.07944 140.077 6.04755L140.077 6.04732C140.084 6.02694 140.11 5.9521 140.173 5.87791C140.206 5.83787 140.275 5.76952 140.385 5.72887C140.51 5.68258 140.644 5.68958 140.759 5.73892C140.931 5.813 141.001 5.95584 141.012 5.97833C141.013 5.97907 141.013 5.97968 141.013 5.98016C141.049 6.05223 141.064 6.12397 141.069 6.14734C141.069 6.14782 141.069 6.14828 141.069 6.14871C141.076 6.18568 141.082 6.22573 141.088 6.26522C141.098 6.34503 141.108 6.44839 141.117 6.57282M141.117 10.167L141.117 6.57307C141.117 6.57298 141.117 6.5729 141.117 6.57282M141.117 10.167C141.193 9.17451 141.193 7.56625 141.117 6.57282M141.117 10.167L141.014 6.58049L141.117 6.57257C141.117 6.57265 141.117 6.57274 141.117 6.57282M141.117 19.607L141.117 19.6076C141.107 19.7206 141.096 19.8163 141.086 19.8923C141.078 19.9455 141.063 20.052 141.024 20.1419C141.014 20.1658 140.985 20.2306 140.926 20.2948C140.865 20.3604 140.694 20.5015 140.445 20.4467C140.241 20.4019 140.145 20.2545 140.124 20.22C140.091 20.1676 140.074 20.1199 140.066 20.0972C140.039 20.0157 140.029 19.9207 140.023 19.8628C139.994 19.5839 139.979 18.9966 139.978 18.1852C139.978 17.371 139.993 16.7655 140.02 16.4542C140.026 16.3792 140.035 16.2988 140.05 16.2318L140.05 16.2303C140.055 16.2075 140.072 16.1297 140.118 16.0514C140.137 16.0198 140.211 15.8958 140.373 15.8323C140.596 15.7452 140.79 15.8356 140.89 15.9221C140.969 15.9909 141.007 16.067 141.019 16.0926C141.036 16.1277 141.046 16.1591 141.053 16.1796C141.065 16.221 141.074 16.2625 141.08 16.2957C141.092 16.3646 141.103 16.4514 141.113 16.5505M141.117 19.607L140.627 19.4638C140.638 19.4655 140.649 19.4676 140.66 19.47C140.762 19.4925 140.836 19.5411 140.886 19.5871C140.886 19.5872 140.886 19.5873 140.886 19.5874C140.934 19.6311 140.961 19.6724 140.969 19.6862C140.999 19.7325 141.012 19.7716 141.015 19.7831C141.021 19.8003 141.024 19.8115 141.024 19.8115C141.024 19.8114 141.021 19.7973 141.018 19.7618C141.013 19.7189 141.009 19.6642 141.005 19.5978C141.005 19.5977 141.005 19.5975 141.005 19.5974C140.989 19.3214 140.979 18.8442 140.978 18.1846C140.978 17.3891 140.993 16.8315 141.014 16.5607L141.113 16.5508C141.113 16.5507 141.113 16.5506 141.113 16.5505M141.117 19.607C141.194 18.7095 141.194 17.345 141.113 16.5505M141.117 19.607L141.014 16.5603L141.113 16.5502C141.113 16.5503 141.113 16.5504 141.113 16.5505M140.089 10.3926C140.087 10.3998 140.087 10.3982 140.089 10.3904C140.089 10.3913 140.089 10.392 140.089 10.3926ZM140.089 6.34944C140.087 6.34165 140.087 6.34005 140.089 6.34723C140.089 6.34779 140.089 6.34853 140.089 6.34944ZM140.289 19.5354L140.502 19.5539C140.528 20.0695 140.57 20.1131 140.618 19.5639L140.289 19.5354ZM140.502 19.5537L140.29 19.5351L140.502 19.5537Z" fill="#0C0C0C" stroke="black"/>
</svg>
