<svg id="svg" version="1.1" xmlns="http://www.w3.org/2000/svg" xmlns:xlink="http://www.w3.org/1999/xlink" width="400" height="400" viewBox="0, 0, 400,400"><g id="svgg"><path id="path0" d="M68.902 189.310 C 64.677 190.568,64.074 192.195,64.074 202.339 L 64.074 210.370 65.185 210.370 L 66.296 210.370 66.296 207.407 L 66.296 204.444 70.926 204.444 L 75.556 204.444 75.556 207.407 L 75.556 210.370 76.888 210.370 L 78.221 210.370 78.081 202.315 C 77.885 190.948,75.369 187.384,68.902 189.310 M299.074 189.225 C 294.539 190.352,293.709 192.462,293.706 202.870 L 293.704 210.370 294.799 210.370 L 295.895 210.370 296.003 207.500 L 296.111 204.630 300.833 204.526 L 305.556 204.422 305.556 207.396 L 305.556 210.370 306.667 210.370 L 307.778 210.370 307.776 202.870 C 307.775 198.745,307.602 194.751,307.391 193.993 C 306.430 190.534,302.613 188.345,299.074 189.225 M334.372 189.393 C 322.557 192.669,324.803 210.627,337.011 210.497 C 341.609 210.448,346.131 207.296,344.036 205.600 C 343.288 204.994,343.206 205.017,341.919 206.196 C 337.037 210.667,328.889 206.696,328.889 199.845 C 328.889 192.865,337.031 188.831,341.892 193.403 L 342.857 194.311 343.864 193.508 L 344.871 192.705 343.639 191.665 C 341.017 189.448,337.384 188.558,334.372 189.393 M97.778 200.000 L 97.778 210.370 99.074 210.370 L 100.370 210.370 100.370 207.407 L 100.370 204.444 102.787 204.444 L 105.204 204.444 106.643 206.759 C 108.920 210.421,108.944 210.444,110.292 210.308 L 111.507 210.185 109.613 207.113 L 107.720 204.041 108.677 203.288 C 112.580 200.218,113.332 195.589,110.477 192.197 C 108.711 190.097,107.209 189.630,102.237 189.630 L 97.778 189.630 97.778 200.000 M131.111 200.000 L 131.111 210.370 132.222 210.370 L 133.333 210.370 133.333 207.561 C 133.333 204.777,133.349 204.733,135.068 202.544 L 136.802 200.337 140.082 205.354 C 143.249 210.198,143.406 210.370,144.644 210.370 C 146.285 210.370,146.504 210.911,142.170 204.251 L 138.414 198.480 139.485 197.041 C 140.074 196.250,141.608 194.259,142.894 192.616 L 145.232 189.630 143.788 189.630 C 142.366 189.630,142.277 189.715,138.198 194.985 C 135.918 197.930,133.891 200.440,133.693 200.562 C 133.466 200.702,133.333 198.723,133.333 195.207 L 133.333 189.630 132.222 189.630 L 131.111 189.630 131.111 200.000 M164.815 200.000 L 164.815 210.370 171.667 210.370 L 178.519 210.370 178.519 209.074 L 178.519 207.778 172.778 207.778 L 167.037 207.778 167.037 204.630 L 167.037 201.481 171.667 201.481 L 176.296 201.481 176.296 200.382 L 176.296 199.282 171.759 199.178 L 167.222 199.074 167.116 195.463 L 167.010 191.852 172.579 191.852 L 178.148 191.852 178.148 190.741 L 178.148 189.630 171.481 189.630 L 164.815 189.630 164.815 200.000 M195.926 190.741 L 195.926 191.852 199.074 191.852 L 202.222 191.852 202.222 201.111 L 202.222 210.370 203.519 210.370 L 204.815 210.370 204.815 201.111 L 204.815 191.852 208.148 191.852 L 211.481 191.852 211.481 190.741 L 211.481 189.630 203.704 189.630 L 195.926 189.630 195.926 190.741 M229.259 199.971 L 229.259 210.370 230.355 210.370 L 231.450 210.370 231.558 207.500 L 231.667 204.630 235.043 204.416 C 240.692 204.058,243.509 201.597,243.488 197.037 C 243.464 191.887,240.859 189.869,234.010 189.693 L 229.259 189.571 229.259 199.971 M262.593 200.000 L 262.593 210.370 269.074 210.370 L 275.556 210.370 275.556 209.074 L 275.556 207.778 270.185 207.778 L 264.815 207.778 264.815 198.704 L 264.815 189.630 263.704 189.630 L 262.593 189.630 262.593 200.000 M363.704 200.000 L 363.704 210.370 370.370 210.370 L 377.037 210.370 377.037 209.074 L 377.037 207.778 371.481 207.778 L 365.926 207.778 365.926 204.630 L 365.926 201.481 370.556 201.481 L 375.185 201.481 375.185 200.370 L 375.185 199.259 370.556 199.259 L 365.926 199.259 365.926 195.556 L 365.926 191.852 371.481 191.852 L 377.037 191.852 377.037 190.741 L 377.037 189.630 370.370 189.630 L 363.704 189.630 363.704 200.000 M23.344 200.093 L 23.333 210.370 24.444 210.370 L 25.556 210.370 25.556 203.519 C 25.556 195.299,25.278 195.480,30.265 200.450 L 34.060 204.232 38.049 200.172 L 42.037 196.111 42.138 203.241 L 42.238 210.370 43.341 210.370 L 44.444 210.370 44.434 200.093 L 44.424 189.815 43.065 191.296 C 42.317 192.111,39.973 194.611,37.855 196.852 L 34.005 200.926 28.679 195.370 L 23.354 189.815 23.344 200.093 M73.789 192.210 C 75.237 193.349,75.596 194.693,75.478 198.539 L 75.370 202.037 70.833 202.141 L 66.296 202.245 66.296 198.908 C 66.296 195.036,66.990 192.845,68.471 192.040 C 69.928 191.249,72.679 191.336,73.789 192.210 M303.893 192.708 C 305.289 194.104,305.674 195.774,305.487 199.630 L 305.370 202.037 300.594 202.141 L 295.818 202.245 296.016 198.380 C 296.299 192.820,297.191 191.558,300.870 191.507 C 302.427 191.485,302.831 191.645,303.893 192.708 M107.023 192.400 C 112.420 195.191,109.782 201.852,103.279 201.852 L 100.370 201.852 100.370 196.852 L 100.370 191.852 103.167 191.852 C 104.911 191.852,106.361 192.058,107.023 192.400 M238.713 192.598 C 243.917 195.815,240.874 202.222,234.142 202.222 L 231.481 202.222 231.481 197.037 L 231.481 191.852 234.493 191.852 C 236.867 191.852,237.761 192.010,238.713 192.598 " stroke="none" fill="#141414" fill-rule="evenodd"></path><path id="path1" d="M167.171 195.185 C 167.171 197.120,167.233 197.912,167.309 196.944 C 167.386 195.977,167.386 194.394,167.309 193.426 C 167.233 192.458,167.171 193.250,167.171 195.185 M167.164 205.000 C 167.165 206.630,167.230 207.250,167.309 206.379 C 167.387 205.508,167.386 204.175,167.306 203.416 C 167.227 202.658,167.163 203.370,167.164 205.000 " stroke="none" fill="#0c0c0c" fill-rule="evenodd"></path><path id="path2" d="" stroke="none" fill="#040404" fill-rule="evenodd"></path><path id="path3" d="" stroke="none" fill="#14180c" fill-rule="evenodd"></path><path id="path4" d="" stroke="none" fill="#080410" fill-rule="evenodd"></path></g></svg>